<?xml version="1.0" encoding="UTF-8"?>
<svg width="548px" height="242px" viewBox="0 0 548 242" version="1.1" xmlns="http://www.w3.org/2000/svg" xmlns:xlink="http://www.w3.org/1999/xlink">
    <!-- Generator: Sketch 49.3 (51167) - http://www.bohemiancoding.com/sketch -->
    <title>Page 1</title>
    <desc>Created with Sketch.</desc>
    <defs>
        <polygon id="path-1" points="0.00047826087 0.0480652174 547.878913 0.0480652174 547.878913 219.206326 0.00047826087 219.206326"></polygon>
        <polygon id="path-3" points="0 241.308913 547.878913 241.308913 547.878913 0 0 0"></polygon>
    </defs>
    <g id="Saved-/-Draft-Applications" stroke="none" stroke-width="1" fill="none" fill-rule="evenodd">
        <g id="Saved-/-Draft-Jobs---empty-states" transform="translate(-445.000000, -150.000000)">
            <g id="Page-1" transform="translate(445.000000, 150.000000)">
                <g id="Group-3" transform="translate(0.000000, 21.308913)">
                    <mask id="mask-2" fill="white">
                        <use xlink:href="#path-1"></use>
                    </mask>
                    <g id="Clip-2"></g>
                    <path d="M470.836348,54.5363261 L414.92287,54.5363261 C402.287217,54.5363261 392.04287,64.7806739 392.04287,77.4163261 C392.04287,89.987413 402.182,100.203065 414.753087,100.296326 L521.300043,101.083065 C536.011348,101.190674 547.879391,113.147196 547.879391,127.860891 C547.879391,142.646326 535.891783,154.636326 521.101565,154.636326 L479.550261,154.636326 C454.159391,154.636326 433.577435,175.215891 433.577435,200.609152 L433.577435,219.206326 L127.076783,218.015457 C127.076783,194.135891 107.719174,174.780674 83.8396087,174.780674 L29.4135217,174.780674 C13.1693913,174.780674 0.00047826087,161.611761 0.00047826087,145.365239 C0.00047826087,129.121109 13.1693913,115.952196 29.4135217,115.952196 L120.589174,115.952196 C135.56113,115.952196 147.699391,103.816326 147.699391,88.8443696 C147.699391,73.872413 135.56113,61.7341522 120.589174,61.7341522 L77.5098261,61.7341522 C60.4741739,61.7341522 46.6667826,47.9267609 46.6667826,30.8935 C46.6667826,13.8602391 60.4741739,0.0480652174 77.5098261,0.0480652174 L470.836348,0.0480652174 C485.882435,0.0480652174 498.080478,12.2461087 498.080478,27.2921957 C498.080478,42.3382826 485.882435,54.5363261 470.836348,54.5363261 Z" id="Fill-1" fill="#F2F2F4" mask="url(#mask-2)"></path>
                </g>
                <path d="M238.280565,239.515435 L238.280565,89.6547826 C238.280565,85.5847826 234.980565,82.2847826 230.910565,82.2847826 L121.98187,82.2847826 C117.91187,82.2847826 114.61187,85.5847826 114.61187,89.6547826 L114.61187,239.515435 L238.280565,239.515435 Z" id="Fill-4" fill="#DDE9F2"></path>
                <path d="M228.181848,239.515435 L228.181848,89.6547826 C228.181848,85.5847826 225.384022,82.2847826 221.93337,82.2847826 L129.578804,82.2847826 C126.125761,82.2847826 123.327935,85.5847826 123.327935,89.6547826 L123.327935,239.515435 L228.181848,239.515435 Z" id="Fill-6" fill="#FFFFFF"></path>
                <path d="M114.612348,101.38963 L114.612348,88.4837609 C114.612348,85.059413 117.386261,82.2855 120.810609,82.2855 L232.082783,82.2855 C235.50713,82.2855 238.281043,85.059413 238.281043,88.4837609 L238.281043,101.38963 L114.612348,101.38963 Z" id="Fill-8" fill="#DDE9F2"></path>
                <path d="M116.405826,194.741609 L112.81887,194.741609 L112.81887,88.4816087 C112.81887,84.0768261 116.403435,80.4922609 120.810609,80.4922609 L137.231696,80.4922609 L137.231696,84.0792174 L120.810609,84.0792174 C118.381043,84.0792174 116.405826,86.0544348 116.405826,88.4816087 L116.405826,194.741609 Z" id="Fill-10" fill="#8C99AA"></path>
                <path d="M240.074043,160.66313 L236.487087,160.66313 L236.487087,88.4816087 C236.487087,86.0544348 234.51187,84.0792174 232.082304,84.0792174 L158.717087,84.0792174 L158.717087,80.4922609 L232.082304,80.4922609 C236.489478,80.4922609 240.074043,84.0768261 240.074043,88.4816087 L240.074043,160.66313 Z" id="Fill-12" fill="#8C99AA"></path>
                <mask id="mask-4" fill="white">
                    <use xlink:href="#path-3"></use>
                </mask>
                <g id="Clip-15"></g>
                <polygon id="Fill-14" fill="#8C99AA" mask="url(#mask-4)" points="143.227174 84.0782609 151.723478 84.0782609 151.723478 80.4913043 143.227174 80.4913043"></polygon>
                <polygon id="Fill-16" fill="#8C99AA" mask="url(#mask-4)" points="114.612826 103.519565 238.281522 103.519565 238.281522 99.9326087 114.612826 99.9326087"></polygon>
                <polygon id="Fill-17" fill="#8C99AA" mask="url(#mask-4)" points="128.814783 94.6813043 131.691522 94.6813043 131.691522 91.0943478 128.814783 91.0943478"></polygon>
                <polygon id="Fill-18" fill="#8C99AA" mask="url(#mask-4)" points="137.167609 94.6813043 140.044348 94.6813043 140.044348 91.0943478 137.167609 91.0943478"></polygon>
                <polygon id="Fill-19" fill="#8C99AA" mask="url(#mask-4)" points="145.518043 94.6813043 148.394783 94.6813043 148.394783 91.0943478 145.518043 91.0943478"></polygon>
                <polygon id="Fill-20" fill="#E6EBEF" mask="url(#mask-4)" points="131.179783 151.701957 221.712174 151.701957 221.712174 115.990217 131.179783 115.990217"></polygon>
                <path d="M186.926109,19.8121957 L176.45937,19.8121957 C175.46937,19.8121957 174.665891,19.0087174 174.665891,18.0187174 C174.665891,17.0287174 175.46937,16.2252391 176.45937,16.2252391 L186.926109,16.2252391 C187.916109,16.2252391 188.719587,17.0287174 188.719587,18.0187174 C188.719587,19.0087174 187.916109,19.8121957 186.926109,19.8121957" id="Fill-21" fill="#8C99AA" mask="url(#mask-4)"></path>
                <path d="M181.692739,25.0453261 C180.702739,25.0453261 179.899261,24.2418478 179.899261,23.2518478 L179.899261,12.7851087 C179.899261,11.7951087 180.702739,10.9916304 181.692739,10.9916304 C182.682739,10.9916304 183.486217,11.7951087 183.486217,12.7851087 L183.486217,23.2518478 C183.486217,24.2418478 182.682739,25.0453261 181.692739,25.0453261" id="Fill-22" fill="#8C99AA" mask="url(#mask-4)"></path>
                <path d="M487.95713,206.637391 L477.490391,206.637391 C476.500391,206.637391 475.696913,205.833913 475.696913,204.843913 C475.696913,203.853913 476.500391,203.050435 477.490391,203.050435 L487.95713,203.050435 C488.94713,203.050435 489.750609,203.853913 489.750609,204.843913 C489.750609,205.833913 488.94713,206.637391 487.95713,206.637391" id="Fill-23" fill="#8C99AA" mask="url(#mask-4)"></path>
                <path d="M482.723761,211.870761 C481.733761,211.870761 480.930283,211.067283 480.930283,210.077283 L480.930283,199.610543 C480.930283,198.620543 481.733761,197.817065 482.723761,197.817065 C483.713761,197.817065 484.517239,198.620543 484.517239,199.610543 L484.517239,210.077283 C484.517239,211.067283 483.713761,211.870761 482.723761,211.870761" id="Fill-24" fill="#8C99AA" mask="url(#mask-4)"></path>
                <path d="M467.271391,110.296283 L456.804652,110.296283 C455.814652,110.296283 455.011174,109.492804 455.011174,108.502804 C455.011174,107.512804 455.814652,106.709326 456.804652,106.709326 L467.271391,106.709326 C468.261391,106.709326 469.06487,107.512804 469.06487,108.502804 C469.06487,109.492804 468.261391,110.296283 467.271391,110.296283" id="Fill-25" fill="#8C99AA" mask="url(#mask-4)"></path>
                <path d="M462.038022,115.529652 C461.048022,115.529652 460.244543,114.726174 460.244543,113.736174 L460.244543,103.269435 C460.244543,102.279435 461.048022,101.475957 462.038022,101.475957 C463.028022,101.475957 463.8315,102.279435 463.8315,103.269435 L463.8315,113.736174 C463.8315,114.726174 463.028022,115.529652 462.038022,115.529652" id="Fill-26" fill="#8C99AA" mask="url(#mask-4)"></path>
                <path d="M286.77,55.683913 C286.31087,55.683913 285.851739,55.5093478 285.502609,55.1578261 C284.801957,54.4571739 284.801957,53.3236957 285.502609,52.6230435 L292.903696,45.2219565 C293.604348,44.5213043 294.740217,44.5213043 295.44087,45.2219565 C296.141522,45.9226087 296.141522,47.0584783 295.44087,47.7591304 L288.037391,55.1578261 C287.688261,55.5093478 287.22913,55.683913 286.77,55.683913" id="Fill-27" fill="#8C99AA" mask="url(#mask-4)"></path>
                <path d="M294.172761,55.683913 C293.71363,55.683913 293.2545,55.5093478 292.90537,55.1578261 L285.501891,47.7591304 C284.801239,47.0584783 284.801239,45.9226087 285.501891,45.2219565 C286.202543,44.5213043 287.338413,44.5213043 288.039065,45.2219565 L295.440152,52.6230435 C296.140804,53.3236957 296.140804,54.4571739 295.440152,55.1578261 C295.091022,55.5093478 294.631891,55.683913 294.172761,55.683913" id="Fill-28" fill="#8C99AA" mask="url(#mask-4)"></path>
                <path d="M79.3336739,128.614152 C78.8745435,128.614152 78.415413,128.439587 78.0662826,128.088065 C77.3656304,127.387413 77.3656304,126.253935 78.0662826,125.553283 L85.4673696,118.152196 C86.1680217,117.451543 87.3038913,117.451543 88.0045435,118.152196 C88.7051957,118.852848 88.7051957,119.988717 88.0045435,120.68937 L80.6010652,128.088065 C80.2519348,128.439587 79.7928043,128.614152 79.3336739,128.614152" id="Fill-29" fill="#8C99AA" mask="url(#mask-4)"></path>
                <path d="M86.7364348,128.614152 C86.2773043,128.614152 85.8181739,128.439587 85.4690435,128.088065 L78.0655652,120.68937 C77.364913,119.988717 77.364913,118.852848 78.0655652,118.152196 C78.7662174,117.451543 79.902087,117.451543 80.6027391,118.152196 L88.0038261,125.553283 C88.7044783,126.253935 88.7044783,127.387413 88.0038261,128.088065 C87.6546957,128.439587 87.1955652,128.614152 86.7364348,128.614152" id="Fill-30" fill="#8C99AA" mask="url(#mask-4)"></path>
                <polygon id="Fill-31" fill="#8C99AA" mask="url(#mask-4)" points="316.441304 51.9845652 388.419565 51.9845652 388.419565 48.3976087 316.441304 48.3976087"></polygon>
                <polygon id="Fill-32" fill="#8C99AA" mask="url(#mask-4)" points="43.9832609 76.7823913 108.756522 76.7823913 108.756522 73.1954348 43.9832609 73.1954348"></polygon>
                <polygon id="Fill-33" fill="#8C99AA" mask="url(#mask-4)" points="405.364348 110.296522 448.811957 110.296522 448.811957 106.709565 405.364348 106.709565"></polygon>
                <polygon id="Fill-34" fill="#8C99AA" mask="url(#mask-4)" points="305.297826 51.9845652 312.768261 51.9845652 312.768261 48.3976087 305.297826 48.3976087"></polygon>
                <path d="M503.413087,142.284761 C503.413087,143.937152 502.071565,145.276283 500.421565,145.276283 C498.769174,145.276283 497.430043,143.937152 497.430043,142.284761 C497.430043,140.634761 498.769174,139.293239 500.421565,139.293239 C502.071565,139.293239 503.413087,140.634761 503.413087,142.284761" id="Fill-35" fill="#8C99AA" mask="url(#mask-4)"></path>
                <path d="M53.6773696,88.8283478 C53.6773696,90.4807391 52.3358478,91.8222609 50.6858478,91.8222609 C49.0334565,91.8222609 47.6943261,90.4807391 47.6943261,88.8283478 C47.6943261,87.1783478 49.0334565,85.8368261 50.6858478,85.8368261 C52.3358478,85.8368261 53.6773696,87.1783478 53.6773696,88.8283478" id="Fill-36" fill="#8C99AA" mask="url(#mask-4)"></path>
                <path d="M427.18787,52.0455435 C427.18787,53.126413 426.312652,54.0016304 425.231783,54.0016304 C424.150913,54.0016304 423.275696,53.126413 423.275696,52.0455435 C423.275696,50.9670652 424.150913,50.0918478 425.231783,50.0918478 C426.312652,50.0918478 427.18787,50.9670652 427.18787,52.0455435" id="Fill-37" fill="#8C99AA" mask="url(#mask-4)"></path>
                <path d="M112.668217,34.1038261 C112.668217,35.1846957 111.790609,36.059913 110.71213,36.059913 C109.631261,36.059913 108.756043,35.1846957 108.756043,34.1038261 C108.756043,33.0253478 109.631261,32.1501304 110.71213,32.1501304 C111.790609,32.1501304 112.668217,33.0253478 112.668217,34.1038261" id="Fill-38" fill="#8C99AA" mask="url(#mask-4)"></path>
                <path d="M90.6478913,168.958087 C90.6478913,170.036565 89.7726739,170.914174 88.6918043,170.914174 C87.6109348,170.914174 86.7357174,170.036565 86.7357174,168.958087 C86.7357174,167.877217 87.6109348,167.002 88.6918043,167.002 C89.7726739,167.002 90.6478913,167.877217 90.6478913,168.958087" id="Fill-39" fill="#8C99AA" mask="url(#mask-4)"></path>
                <path d="M324.745826,88.8307391 C324.745826,90.267913 323.57887,91.4348696 322.141696,91.4348696 C320.704522,91.4348696 319.537565,90.267913 319.537565,88.8307391 C319.537565,87.3911739 320.704522,86.2242174 322.141696,86.2242174 C323.57887,86.2242174 324.745826,87.3911739 324.745826,88.8307391" id="Fill-40" fill="#8C99AA" mask="url(#mask-4)"></path>
                <path d="M361.368652,2.60365217 C361.368652,4.04321739 360.204087,5.20778261 358.764522,5.20778261 C357.327348,5.20778261 356.160391,4.04321739 356.160391,2.60365217 C356.160391,1.16408696 357.327348,-0.00047826087 358.764522,-0.00047826087 C360.204087,-0.00047826087 361.368652,1.16408696 361.368652,2.60365217" id="Fill-41" fill="#8C99AA" mask="url(#mask-4)"></path>
                <path d="M185.703435,46.4900652 C185.703435,47.9296304 184.536478,49.0941957 183.099304,49.0941957 C181.66213,49.0941957 180.495174,47.9296304 180.495174,46.4900652 C180.495174,45.0505 181.66213,43.8859348 183.099304,43.8859348 C184.536478,43.8859348 185.703435,45.0505 185.703435,46.4900652" id="Fill-42" fill="#8C99AA" mask="url(#mask-4)"></path>
                <path d="M182.127,215.742522 L181.682217,215.742522 C179.72613,209.001435 173.515913,204.068174 166.14113,204.068174 C162.924826,204.068174 159.933304,205.019913 157.41287,206.638826 C155.774826,196.016652 146.623304,187.876652 135.544391,187.876652 C125.596565,187.876652 117.183957,194.428826 114.381348,203.451217 C113.118739,203.114043 111.798739,202.915565 110.428522,202.915565 C102.838522,202.915565 96.5637391,208.477739 95.4135217,215.742522 L92.9361304,215.742522 C86.6876522,215.742522 81.5750435,220.857522 81.5750435,227.106 L81.5750435,227.942957 C81.5750435,234.191435 86.6876522,239.304043 92.9361304,239.304043 L182.127,239.304043 C188.375478,239.304043 193.488087,234.191435 193.488087,227.942957 L193.488087,227.106 C193.488087,220.857522 188.375478,215.742522 182.127,215.742522" id="Fill-43" fill="#E6EBEF" mask="url(#mask-4)"></path>
                <path d="M171.676761,218.533174 L171.284587,218.533174 C169.560457,212.590783 164.08437,208.241 157.584804,208.241 C154.748717,208.241 152.111109,209.080348 149.889587,210.507957 C148.44763,201.146 140.37937,193.967304 130.610891,193.967304 C121.84437,193.967304 114.426543,199.744696 111.953935,207.698174 C110.841978,207.399261 109.677413,207.224696 108.469804,207.224696 C101.781326,207.224696 96.2502391,212.12687 95.2363261,218.533174 L93.0506739,218.533174 C87.5411087,218.533174 83.0358913,223.040783 83.0358913,228.547957 L83.0358913,229.28687 C83.0358913,234.796435 87.5411087,239.304043 93.0506739,239.304043 L171.676761,239.304043 C177.186326,239.304043 181.691543,234.796435 181.691543,229.28687 L181.691543,228.547957 C181.691543,223.040783 177.186326,218.533174 171.676761,218.533174" id="Fill-44" fill="#FFFFFF" mask="url(#mask-4)"></path>
                <path d="M148.468913,205.820043 C145.379348,201.063739 140.156739,198.220478 134.496522,198.220478 C131.502609,198.220478 128.568478,199.023957 126.002609,200.542435 L124.178043,197.455261 C127.293913,195.609174 130.861739,194.633522 134.496522,194.633522 C141.376304,194.633522 147.722826,198.086565 151.477174,203.868739 L148.468913,205.820043 Z" id="Fill-45" fill="#8C99AA" mask="url(#mask-4)"></path>
                <path d="M129.887283,241.096565 L92.4729348,241.096565 C85.4759783,241.096565 79.7822826,235.40287 79.7822826,228.405913 L79.7822826,227.602435 C79.7822826,220.60787 85.4759783,214.914174 92.4729348,214.914174 L93.3888043,214.914174 C95.4333696,206.872217 103.286413,201.393739 111.873587,202.830913 C112.256196,201.855261 112.70337,200.90113 113.2175,199.98287 C113.930109,198.710696 114.769457,197.503087 115.709239,196.386348 C120.099674,191.173304 126.525109,188.184174 133.335543,188.184174 L133.335543,191.77113 C127.584457,191.77113 122.160978,194.296348 118.452065,198.698739 C117.658152,199.640913 116.950326,200.662 116.350109,201.730913 C115.690109,202.917 115.152065,204.170043 114.755109,205.449391 L114.24337,207.099391 L112.574239,206.649826 C104.957935,204.590913 97.7768478,209.658087 96.6218478,216.987435 L96.3803261,218.50113 L92.4729348,218.50113 C87.453587,218.50113 83.3692391,222.585478 83.3692391,227.602435 L83.3692391,228.405913 C83.3692391,233.425261 87.453587,237.509609 92.4729348,237.509609 L129.887283,237.509609 L129.887283,241.096565 Z" id="Fill-46" fill="#8C99AA" mask="url(#mask-4)"></path>
                <path d="M120.39213,212.846891 L116.805174,212.846891 C116.805174,209.487109 114.071913,206.753848 110.71213,206.753848 L110.71213,203.166891 C116.051913,203.166891 120.39213,207.5095 120.39213,212.846891" id="Fill-47" fill="#8C99AA" mask="url(#mask-4)"></path>
                <path d="M145.979565,179.172543 L218.271087,179.172543 C220.148261,179.172543 221.666739,180.693413 221.666739,182.568196 L221.666739,238.634717 L149.30587,238.634717 C145.498913,238.634717 142.41413,235.549935 142.41413,231.742978 L142.41413,182.735587 C142.41413,180.767543 144.011522,179.172543 145.979565,179.172543" id="Fill-48" fill="#F0F4F7" mask="url(#mask-4)"></path>
                <path d="M223.461174,240.428674 L148.639652,240.428674 C144.21813,240.428674 140.621609,236.832152 140.621609,232.408239 L140.621609,182.391717 C140.621609,179.62737 142.871826,177.379543 145.636174,177.379543 L150.514435,177.379543 L150.514435,180.9665 L145.636174,180.9665 C144.849435,180.9665 144.208565,181.604978 144.208565,182.391717 L144.208565,232.408239 C144.208565,234.854543 146.195739,236.841717 148.639652,236.841717 L219.874217,236.841717 L219.874217,182.241065 C219.874217,181.538022 219.302696,180.9665 218.599652,180.9665 L171.880739,180.9665 L171.880739,177.379543 L218.599652,177.379543 C221.280304,177.379543 223.461174,179.560413 223.461174,182.241065 L223.461174,240.428674 Z" id="Fill-49" fill="#8C99AA" mask="url(#mask-4)"></path>
                <path d="M170.803457,156.919783 L155.016065,172.709565 L155.016065,227.821957 C155.016065,230.318478 157.036717,232.33913 159.533239,232.33913 L206.665848,232.33913 C209.16237,232.33913 211.183022,230.318478 211.183022,227.821957 L211.183022,161.436957 C211.183022,158.942826 209.16237,156.919783 206.665848,156.919783 L170.803457,156.919783 Z" id="Fill-50" fill="#FFFFFF" mask="url(#mask-4)"></path>
                <polygon id="Fill-51" fill="#F0F4F7" mask="url(#mask-4)" points="170.803457 172.70837 170.803457 156.918587 155.016065 172.70837"></polygon>
                <path d="M169.224717,174.501848 L155.015587,174.501848 L155.015587,170.914891 L169.0095,170.914891 L169.0095,156.918587 L172.596457,156.918587 L172.596457,171.130109 C172.596457,172.988152 171.082761,174.501848 169.224717,174.501848" id="Fill-52" fill="#8C99AA" mask="url(#mask-4)"></path>
                <path d="M206.665848,234.132848 L159.530848,234.132848 C156.0515,234.132848 153.220196,231.301543 153.220196,227.822196 L153.220196,171.966109 L170.059761,155.126543 L206.665848,155.126543 C210.145196,155.126543 212.9765,157.957848 212.9765,161.437196 L212.9765,182.710239 L209.389543,182.710239 L209.389543,161.437196 C209.389543,159.935457 208.167587,158.7135 206.665848,158.7135 L171.544761,158.7135 L156.807152,173.451109 L156.807152,227.822196 C156.807152,229.323935 158.029109,230.545891 159.530848,230.545891 L206.665848,230.545891 L206.665848,234.132848 Z" id="Fill-53" fill="#8C99AA" mask="url(#mask-4)"></path>
                <path d="M161.608174,152.321543 L145.818391,168.111326 L145.818391,223.226109 C145.818391,225.720239 147.841435,227.743283 150.335565,227.743283 L197.470565,227.743283 C199.964696,227.743283 201.987739,225.720239 201.987739,223.226109 L201.987739,156.838717 C201.987739,154.344587 199.964696,152.321543 197.470565,152.321543 L161.608174,152.321543 Z" id="Fill-54" fill="#E6EBEF" mask="url(#mask-4)"></path>
                <polygon id="Fill-55" fill="#F0F4F7" mask="url(#mask-4)" points="161.608174 168.11037 161.608174 152.320587 145.818391 168.11037"></polygon>
                <path d="M160.03087,169.903848 L145.821739,169.903848 L145.821739,166.316891 L159.813261,166.316891 L159.813261,152.320587 L163.400217,152.320587 L163.400217,166.5345 C163.400217,168.392543 161.888913,169.903848 160.03087,169.903848" id="Fill-56" fill="#8C99AA" mask="url(#mask-4)"></path>
                <polygon id="Fill-57" fill="#8C99AA" mask="url(#mask-4)" points="153.399783 177.606957 193.566522 177.606957 193.566522 174.02 153.399783 174.02"></polygon>
                <polygon id="Fill-58" fill="#8C99AA" mask="url(#mask-4)" points="153.399783 186.562391 193.566522 186.562391 193.566522 182.975435 153.399783 182.975435"></polygon>
                <polygon id="Fill-59" fill="#8C99AA" mask="url(#mask-4)" points="153.399783 195.520217 193.566522 195.520217 193.566522 191.933261 153.399783 191.933261"></polygon>
                <polygon id="Fill-60" fill="#8C99AA" mask="url(#mask-4)" points="153.399783 204.475652 193.566522 204.475652 193.566522 200.888696 153.399783 200.888696"></polygon>
                <path d="M152.41313,229.537 L150.337478,229.537 C146.85813,229.537 144.026826,226.705696 144.026826,223.226348 L144.026826,167.36787 L160.864,150.528304 L197.470087,150.528304 C200.949435,150.528304 203.780739,153.359609 203.780739,156.838957 L203.780739,188.698304 L200.193783,188.698304 L200.193783,156.838957 C200.193783,155.337217 198.971826,154.115261 197.470087,154.115261 L162.349,154.115261 L147.613783,168.85287 L147.613783,223.226348 C147.613783,224.728087 148.835739,225.950043 150.337478,225.950043 L152.41313,225.950043 L152.41313,229.537 Z" id="Fill-61" fill="#8C99AA" mask="url(#mask-4)"></path>
                <path d="M152.41313,159.219978 L136.623348,175.00737 L136.623348,230.122152 C136.623348,232.616283 138.646391,234.639326 141.140522,234.639326 L188.275522,234.639326 C190.769652,234.639326 192.792696,232.616283 192.792696,230.122152 L192.792696,163.737152 C192.792696,161.24063 190.769652,159.219978 188.275522,159.219978 L152.41313,159.219978 Z" id="Fill-62" fill="#FFFFFF" mask="url(#mask-4)"></path>
                <polygon id="Fill-63" fill="#F0F4F7" mask="url(#mask-4)" points="152.41313 175.006413 152.41313 159.219022 136.623348 175.006413"></polygon>
                <path d="M150.83463,176.799891 L136.6255,176.799891 L136.6255,173.212935 L150.619413,173.212935 L150.619413,159.219022 L154.20637,159.219022 L154.20637,173.430543 C154.20637,175.288587 152.692674,176.799891 150.83463,176.799891" id="Fill-64" fill="#8C99AA" mask="url(#mask-4)"></path>
                <polygon id="Fill-65" fill="#8C99AA" mask="url(#mask-4)" points="144.205217 184.503478 184.371957 184.503478 184.371957 180.916522 144.205217 180.916522"></polygon>
                <polygon id="Fill-66" fill="#8C99AA" mask="url(#mask-4)" points="144.205217 193.458913 184.371957 193.458913 184.371957 189.871957 144.205217 189.871957"></polygon>
                <polygon id="Fill-67" fill="#8C99AA" mask="url(#mask-4)" points="144.205217 202.414348 184.371957 202.414348 184.371957 198.827391 144.205217 198.827391"></polygon>
                <polygon id="Fill-68" fill="#8C99AA" mask="url(#mask-4)" points="144.205217 211.369783 184.371957 211.369783 184.371957 207.782826 144.205217 207.782826"></polygon>
                <path d="M149.195152,236.433043 L141.141239,236.433043 C137.661891,236.433043 134.830587,233.601739 134.830587,230.122391 L134.830587,174.263913 L151.670152,157.426739 L188.276239,157.426739 C191.755587,157.426739 194.5845,160.258043 194.5845,163.737391 L194.5845,188.700217 L190.997543,188.700217 L190.997543,163.737391 C190.997543,162.235652 189.777978,161.013696 188.276239,161.013696 L153.155152,161.013696 L138.417543,175.748913 L138.417543,230.122391 C138.417543,231.62413 139.6395,232.846087 141.141239,232.846087 L149.195152,232.846087 L149.195152,236.433043 Z" id="Fill-69" fill="#8C99AA" mask="url(#mask-4)"></path>
                <path d="M148.759696,238.635196 L224.387087,238.635196 C226.202087,238.635196 227.672739,237.164543 227.672739,235.349543 L227.672739,188.396283 C227.672739,186.882587 226.443609,185.655848 224.929913,185.655848 L212.004913,185.655848 C211.062739,185.655848 210.18513,186.138891 209.682957,186.937587 L206.347087,192.239109 L158.248391,192.239109 C156.512304,192.239109 155.106217,193.647587 155.106217,195.381283 L155.106217,232.291065 C155.106217,235.253891 152.98513,238.635196 148.759696,238.635196" id="Fill-70" fill="#FFFFFF" mask="url(#mask-4)"></path>
                <path d="M155.105739,232.290109 L155.105739,226.943152 L227.672261,226.943152 L227.672261,235.348587 C227.672261,237.163587 226.201609,238.634239 224.389,238.634239 L148.759217,238.634239 C152.984652,238.634239 155.105739,235.252935 155.105739,232.290109" id="Fill-71" fill="#DDE9F2" mask="url(#mask-4)"></path>
                <path d="M224.388283,240.428674 L148.760891,240.428674 L148.760891,236.841717 C152.101543,236.841717 153.311543,234.118022 153.311543,232.291065 L153.311543,195.381283 C153.311543,192.657587 155.525891,190.44563 158.247196,190.44563 L200.36763,190.44563 L200.36763,194.032587 L158.247196,194.032587 C157.5035,194.032587 156.8985,194.637587 156.8985,195.381283 L156.8985,232.291065 C156.8985,233.862152 156.446543,235.473891 155.568935,236.841717 L224.388283,236.841717 C225.210891,236.841717 225.880457,236.172152 225.880457,235.349543 L225.880457,188.396283 C225.880457,187.872587 225.452413,187.449326 224.931109,187.449326 L212.003717,187.449326 L212.003717,183.86237 L224.931109,183.86237 C227.430022,183.86237 229.467413,185.894978 229.467413,188.396283 L229.467413,235.349543 C229.467413,238.149761 227.1885,240.428674 224.388283,240.428674" id="Fill-72" fill="#8C99AA" mask="url(#mask-4)"></path>
                <g id="Group-75" mask="url(#mask-4)" fill="#8C99AA">
                    <g transform="translate(169.782609, 157.613261)">
                        <path d="M68.4979565,3.06852174 C67.4768696,4.04656522 66.4964348,5.082 65.5733913,6.17721739 C63.9496957,8.107 62.5029565,10.1922174 61.281,12.3754783 C60.2073043,14.290913 59.2914348,16.3043913 58.5501304,18.3776522 C58.1101304,18.2867826 57.6725217,18.2437391 57.2325217,18.172 C56.0177391,17.8611304 54.7527391,17.677 53.4446957,17.677 L53.4446957,17.8156957 C53.2844783,17.8133043 53.1194783,17.7893913 52.9592609,17.7893913 C39.7042609,17.7893913 28.4962174,26.9385217 25.7581739,39.7606957 L23.0057826,39.7606957 C11.286,39.7606957 1.75426087,49.2924348 1.75426087,61.0098261 L1.75426087,62.4446087 C1.75426087,71.1346087 7.00078261,78.6122174 14.4879565,81.9026522 L68.4979565,81.9026522 L68.4979565,3.06852174 Z" id="Fill-73"></path>
                        <path d="M70.2914348,1.5203913 C69.696,2.02734783 69.0838261,2.508 68.5146957,3.05082609 L70.2914348,3.05082609 L70.2914348,1.5203913 Z" id="Fill-74"></path>
                    </g>
                </g>
                <path d="M376.343478,220.058109 L376.343478,218.623326 C376.343478,207.092457 367.110652,197.677891 355.64913,197.38137 C351.607826,185.53963 340.313696,177.3805 327.718696,177.3805 C322.950435,177.3805 318.280217,178.540283 314.064348,180.749848 C311.919348,170.98137 306.311739,162.752891 298.673913,157.209848 L298.673913,158.709196 L300.467391,158.709196 L300.467391,188.162891 L300.467391,188.6005 C300.467391,190.798109 302.248913,192.582022 304.448913,192.582022 L304.881739,192.582022 L304.88413,192.582022 L313.504783,192.582022 L334.675,192.582022 L334.675,234.623543 C334.675,237.662891 337.15,240.1355 340.191739,240.1355 L361.993261,240.1355 C370.329348,237.261152 376.343478,229.360283 376.343478,220.058109" id="Fill-76" fill="#8C99AA" mask="url(#mask-4)"></path>
                <path d="M350.310065,199.166957 L349.54963,199.166957 C346.197022,187.621739 335.562891,179.175652 322.936804,179.175652 C317.427239,179.175652 312.302674,180.801739 307.98637,183.573261 C305.183761,165.385 289.508761,151.441304 270.533761,151.441304 C253.502891,151.441304 239.092891,162.663696 234.293543,178.116304 C232.131804,177.535217 229.86963,177.195652 227.523761,177.195652 C214.527022,177.195652 203.782891,186.722609 201.812457,199.166957 L197.567891,199.166957 C186.866804,199.166957 178.112239,207.921522 178.112239,218.625 L178.112239,220.057391 C178.112239,230.758478 186.866804,239.515435 197.567891,239.515435 L350.310065,239.515435 C361.011152,239.515435 369.768109,230.758478 369.768109,220.057391 L369.768109,218.625 C369.768109,207.921522 361.011152,199.166957 350.310065,199.166957" id="Fill-77" fill="#FFFFFF" mask="url(#mask-4)"></path>
                <path d="M350.310065,241.308913 L327.018761,241.308913 L327.018761,237.721957 L350.310065,237.721957 C360.049848,237.721957 367.97463,229.799565 367.97463,220.057391 L367.97463,218.625 C367.97463,208.882826 360.049848,200.960435 350.310065,200.960435 L348.200935,200.960435 L347.8255,199.666739 C344.630717,188.657174 334.395935,180.96913 322.936804,180.96913 C317.982022,180.96913 313.149196,182.389565 308.954848,185.082174 L306.632891,186.571957 L306.214413,183.848261 C303.481152,166.109565 288.475717,153.234783 270.536152,153.234783 C259.851804,153.234783 249.772457,157.92413 242.880717,166.102391 C241.402891,167.857609 240.087674,169.756304 238.975717,171.741087 C237.75137,173.926739 236.751804,176.251087 236.005717,178.649565 L235.493978,180.297174 L233.82963,179.85 C231.708543,179.28087 229.589848,178.98913 227.523761,178.98913 C215.528978,178.98913 205.461587,187.593043 203.586804,199.446739 L203.345283,200.960435 L197.570283,200.960435 C187.8305,200.960435 179.905717,208.882826 179.905717,218.625 L179.905717,220.057391 C179.905717,229.799565 187.8305,237.721957 197.570283,237.721957 L282.805935,237.721957 L282.805935,241.308913 L197.570283,241.308913 C185.852891,241.308913 176.318761,231.777174 176.318761,220.057391 L176.318761,218.625 C176.318761,206.905217 185.852891,197.373478 197.570283,197.373478 L200.322674,197.373478 C203.063109,184.553696 214.268761,175.402174 227.523761,175.402174 C229.365065,175.402174 231.237457,175.600652 233.11463,175.992826 C233.858326,173.917174 234.774196,171.906087 235.847891,169.988261 C237.069848,167.807391 238.514196,165.722174 240.140283,163.79 C247.713543,154.801087 258.792457,149.647826 270.536152,149.647826 C289.386804,149.647826 305.29137,162.577609 309.282457,180.74913 C313.495935,178.539565 318.168543,177.382174 322.936804,177.382174 C335.529413,177.382174 346.825935,185.541304 350.864848,197.380652 C362.32637,197.677174 371.561587,207.091739 371.561587,218.625 L371.561587,220.057391 C371.561587,231.777174 362.027457,241.308913 350.310065,241.308913" id="Fill-78" fill="#8C99AA" mask="url(#mask-4)"></path>
                <path d="M243.308522,190.591739 L239.721565,190.591739 C239.721565,184.132826 234.46787,178.87913 228.011348,178.87913 L228.011348,175.292174 C236.445478,175.292174 243.308522,182.155217 243.308522,190.591739" id="Fill-79" fill="#8C99AA" mask="url(#mask-4)"></path>
                <polygon id="Fill-80" fill="#8C99AA" mask="url(#mask-4)" points="80.0058696 241.308913 471.751739 241.308913 471.751739 237.721957 80.0058696 237.721957"></polygon>
                <polygon id="Fill-81" fill="#8C99AA" mask="url(#mask-4)" points="69.0967391 241.308913 75.6465217 241.308913 75.6465217 237.721957 69.0967391 237.721957"></polygon>
                <polygon id="Fill-82" fill="#8C99AA" mask="url(#mask-4)" points="475.489348 241.308913 489.956739 241.308913 489.956739 237.721957 475.489348 237.721957"></polygon>
                <path d="M343.07063,237.259717 L343.07063,51.6658043 C343.07063,47.2227609 339.471717,43.6238478 335.031065,43.6238478 L216.195196,43.6238478 C211.754543,43.6238478 208.15563,47.2227609 208.15563,51.6658043 L208.15563,237.262109 L343.07063,237.259717 Z" id="Fill-83" fill="#FFFFFF" mask="url(#mask-4)"></path>
                <path d="M208.154674,64.4669348 L208.154674,50.3845435 C208.154674,46.6517174 211.182065,43.6243261 214.917283,43.6243261 L336.309457,43.6243261 C340.044674,43.6243261 343.069674,46.6517174 343.069674,50.3845435 L343.069674,64.4669348 L208.154674,64.4669348 Z" id="Fill-84" fill="#E6EBEF" mask="url(#mask-4)"></path>
                <path d="M209.949348,238.539304 L206.362391,238.539304 L206.362391,50.3843043 C206.362391,45.6686522 210.198043,41.8282174 214.916087,41.8282174 L336.310652,41.8282174 C341.026304,41.8282174 344.864348,45.6686522 344.864348,50.3843043 L344.864348,143.748 L341.277391,143.748 L341.277391,50.3843043 C341.277391,47.6462609 339.048696,45.4151739 336.310652,45.4151739 L214.916087,45.4151739 C212.178043,45.4151739 209.949348,47.6462609 209.949348,50.3843043 L209.949348,238.539304 Z" id="Fill-85" fill="#8C99AA" mask="url(#mask-4)"></path>
                <polygon id="Fill-86" fill="#8C99AA" mask="url(#mask-4)" points="208.15587 66.6241304 343.07087 66.6241304 343.07087 63.0371739 208.15587 63.0371739"></polygon>
                <polygon id="Fill-87" fill="#8C99AA" mask="url(#mask-4)" points="223.646739 56.9847826 229.046304 56.9847826 229.046304 53.3978261 223.646739 53.3978261"></polygon>
                <polygon id="Fill-88" fill="#8C99AA" mask="url(#mask-4)" points="236.146087 56.9847826 241.545652 56.9847826 241.545652 53.3978261 236.146087 53.3978261"></polygon>
                <polygon id="Fill-89" fill="#8C99AA" mask="url(#mask-4)" points="248.643043 56.9847826 254.040217 56.9847826 254.040217 53.3978261 248.643043 53.3978261"></polygon>
                <polygon id="Fill-90" fill="#DDE9F2" mask="url(#mask-4)" points="226.229348 119.354783 324.997391 119.354783 324.997391 80.3956522 226.229348 80.3956522"></polygon>
                <polygon id="Fill-91" fill="#DDE9F2" mask="url(#mask-4)" points="225.021739 234.120652 323.789783 234.120652 323.789783 206.493913 225.021739 206.493913"></polygon>
                <polygon id="Fill-92" fill="#E6EBEF" mask="url(#mask-4)" points="226.238913 187.832174 256.268913 187.832174 256.268913 148.873043 226.238913 148.873043"></polygon>
                <polygon id="Fill-93" fill="#E6EBEF" mask="url(#mask-4)" points="261.802391 187.832174 291.834783 187.832174 291.834783 148.873043 261.802391 148.873043"></polygon>
                <polygon id="Fill-94" fill="#E6EBEF" mask="url(#mask-4)" points="297.36587 187.832174 327.398261 187.832174 327.398261 148.873043 297.36587 148.873043"></polygon>
                <polygon id="Fill-95" fill="#8C99AA" mask="url(#mask-4)" points="254.623696 133.470652 296.619783 133.470652 296.619783 129.883696 254.623696 129.883696"></polygon>
                <path d="M269.236957,116.711196 C267.481739,116.711196 266.046957,118.14837 266.046957,119.901196 L266.046957,116.55337 C266.046957,114.798152 264.609783,113.36337 262.856957,113.36337 C261.101739,113.36337 259.666957,114.798152 259.666957,116.55337 L259.666957,113.203152 C259.666957,111.450326 258.229783,110.013152 256.476957,110.013152 C254.721739,110.013152 253.284565,111.450326 253.284565,113.203152 L253.284565,103.066413 C253.284565,101.311196 251.849783,99.8740217 250.094565,99.8740217 C248.339348,99.8740217 246.904565,101.311196 246.904565,103.066413 L246.904565,123.150978 L242.406522,123.150978 C241.213261,123.150978 240.247174,124.117065 240.247174,125.307935 L240.247174,139.512283 C240.247174,140.652935 240.911957,141.68837 241.947391,142.16663 L244.563478,143.374239 C245.598913,143.8525 246.263696,144.887935 246.263696,146.030978 L246.263696,152.179022 L267.491304,152.179022 L267.491304,145.241848 C267.491304,144.54837 267.768696,143.885978 268.263696,143.400543 L271.511087,140.224891 C272.096957,139.650978 272.426957,138.86663 272.426957,138.044022 L272.426957,119.901196 C272.426957,118.14837 270.992174,116.711196 269.236957,116.711196" id="Fill-96" fill="#FFFFFF" mask="url(#mask-4)"></path>
                <path d="M248.560543,128.941043 L244.973587,128.941043 L244.973587,103.064739 C244.973587,100.31713 247.209457,98.0812609 249.957065,98.0812609 C252.704674,98.0812609 254.940543,100.31713 254.940543,103.064739 L254.940543,124.249304 L251.353587,124.249304 L251.353587,103.064739 C251.353587,102.294739 250.727065,101.668217 249.957065,101.668217 C249.201413,101.668217 248.560543,102.306696 248.560543,103.064739 L248.560543,128.941043 Z" id="Fill-97" fill="#8C99AA" mask="url(#mask-4)"></path>
                <path d="M261.322696,118.65413 L257.735739,118.65413 L257.735739,113.204348 C257.735739,112.431957 257.109217,111.807826 256.339217,111.807826 C255.569217,111.807826 254.940304,112.431957 254.940304,113.204348 L254.940304,118.65413 L251.353348,118.65413 L251.353348,113.204348 C251.353348,110.454348 253.591609,108.22087 256.339217,108.22087 C259.086826,108.22087 261.322696,110.454348 261.322696,113.204348 L261.322696,118.65413 Z" id="Fill-98" fill="#8C99AA" mask="url(#mask-4)"></path>
                <path d="M267.702457,124.249543 L264.1155,124.249543 L264.1155,116.551935 C264.1155,115.796283 263.47463,115.155413 262.718978,115.155413 C261.963326,115.155413 261.322457,115.796283 261.322457,116.551935 L261.322457,124.249543 L257.7355,124.249543 L257.7355,116.551935 C257.7355,113.804326 259.97137,111.568457 262.718978,111.568457 C265.466587,111.568457 267.702457,113.804326 267.702457,116.551935 L267.702457,124.249543 Z" id="Fill-99" fill="#8C99AA" mask="url(#mask-4)"></path>
                <path d="M269.148,152.179261 L265.561043,152.179261 L265.561043,145.242087 C265.561043,144.072739 266.039304,142.93687 266.87387,142.119043 L270.11887,138.943391 C270.360391,138.706652 270.496696,138.379043 270.496696,138.044261 L270.496696,119.901435 C270.496696,119.131435 269.870174,118.502522 269.097783,118.502522 C268.327783,118.502522 267.703652,119.131435 267.703652,119.901435 L267.703652,122.907304 L264.116696,122.907304 L264.116696,119.901435 C264.116696,117.153826 266.350174,114.915565 269.097783,114.915565 C271.847783,114.915565 274.083652,117.153826 274.083652,119.901435 L274.083652,138.044261 C274.083652,139.340348 273.555174,140.600565 272.627348,141.50687 L269.382348,144.682522 C269.231696,144.830783 269.148,145.029261 269.148,145.242087 L269.148,152.179261 Z" id="Fill-100" fill="#8C99AA" mask="url(#mask-4)"></path>
                <path d="M247.918239,152.179261 L244.331283,152.179261 L244.331283,146.028826 C244.331283,145.588826 244.075413,145.187087 243.676065,145.002957 L241.057587,143.795348 C239.393239,143.027739 238.317152,141.346652 238.317152,139.512522 L238.317152,125.308174 C238.317152,123.129696 240.0915,121.355348 242.267587,121.355348 L246.768022,121.355348 L246.768022,124.942304 L242.267587,124.942304 C242.069109,124.942304 241.904109,125.107304 241.904109,125.308174 L241.904109,139.512522 C241.904109,139.952522 242.16237,140.354261 242.561717,140.538391 L245.177804,141.746 C246.844543,142.513609 247.918239,144.194696 247.918239,146.028826 L247.918239,152.179261 Z" id="Fill-101" fill="#8C99AA" mask="url(#mask-4)"></path>
                <polygon id="Fill-102" fill="#F0F4F7" mask="url(#mask-4)" points="243.303261 238.57087 270.449348 238.57087 270.449348 146.673043 243.303261 146.673043"></polygon>
                <polygon id="Fill-103" fill="#DDE9F2" mask="url(#mask-4)" points="253.148261 238.57087 270.449348 238.57087 270.449348 146.673043 253.148261 146.673043"></polygon>
                <polygon id="Fill-104" fill="#8C99AA" mask="url(#mask-4)" points="272.242348 238.569674 268.655391 238.569674 268.655391 148.465326 245.09387 148.465326 245.09387 238.569674 241.506913 238.569674 241.506913 144.87837 272.242348 144.87837"></polygon>
                <path d="M339.508304,179.426978 L363.110478,175.06763 C368.684609,177.55937 374.847,178.977413 381.348957,178.977413 C406.070261,178.977413 426.109391,158.938283 426.109391,134.216978 C426.109391,109.498065 406.070261,89.4565435 381.348957,89.4565435 C356.630043,89.4565435 336.588522,109.498065 336.588522,134.216978 C336.588522,142.945239 339.125696,151.066109 343.446783,157.950674 L339.508304,179.426978 Z" id="Fill-105" fill="#DDE9F2" mask="url(#mask-4)"></path>
                <path d="M363.840543,173.430065 C369.414674,175.919413 375.304457,177.182022 381.349674,177.182022 C405.040326,177.182022 424.31663,157.908109 424.31663,134.217457 C424.31663,110.524413 405.040326,91.2505 381.349674,91.2505 C357.659022,91.2505 338.382717,110.524413 338.382717,134.217457 C338.382717,142.259413 340.66163,150.13637 344.965978,156.997022 L345.339022,157.587674 L341.7425,177.189196 L363.331196,173.2005 L363.840543,173.430065 Z M341.560761,158.305065 C337.134457,151.013978 334.795761,142.699413 334.795761,134.217457 C334.795761,108.546804 355.681413,87.6635435 381.349674,87.6635435 C407.020326,87.6635435 427.903587,108.546804 427.903587,134.217457 C427.903587,159.885717 407.020326,180.768978 381.349674,180.768978 C374.98163,180.768978 368.776196,179.477674 362.893587,176.930935 L337.277935,181.663326 L341.560761,158.305065 Z" id="Fill-106" fill="#8C99AA" mask="url(#mask-4)"></path>
                <path d="M381.349196,168.997783 C362.708978,168.997783 347.595935,153.526043 347.595935,134.443435 C347.595935,115.358435 362.708978,99.889087 381.349196,99.889087 C399.989413,99.889087 415.102457,115.358435 415.102457,134.443435 C415.102457,153.526043 399.989413,168.997783 381.349196,168.997783" id="Fill-107" fill="#FFFFFF" mask="url(#mask-4)"></path>
                <path d="M391.808761,150.985761 L381.858543,145.918587 C381.662457,145.818152 381.432891,145.820543 381.241587,145.925761 L371.425283,151.248804 C370.942239,151.511848 370.370717,151.105326 370.454413,150.5625 L372.200065,139.533804 C372.233543,139.318587 372.159413,139.098587 372.001587,138.950326 L363.90463,131.259891 C363.507674,130.882065 363.715717,130.210109 364.258543,130.124022 L375.287239,128.375978 C375.502457,128.3425 375.686587,128.206196 375.779848,128.007717 L380.593543,117.930761 C380.827891,117.435761 381.530935,117.426196 381.77963,117.916413 L386.851587,127.864239 C386.94963,128.057935 387.138543,128.191848 387.356152,128.218152 L398.4255,129.68163 C398.970717,129.75337 399.1955,130.418152 398.808109,130.807935 L390.912022,138.704022 C390.758978,138.859457 390.692022,139.079457 390.730283,139.292283 L392.7605,150.273152 C392.860935,150.813587 392.298978,151.234457 391.808761,150.985761" id="Fill-108" fill="#F0F4F7" mask="url(#mask-4)"></path>
                <path d="M366.801696,131.537761 L373.236696,137.649935 C373.820174,138.199935 374.095174,139.005804 373.973217,139.802109 L372.586261,148.578196 L380.386696,144.347978 C381.099304,143.962978 381.948217,143.951022 382.670391,144.316891 L390.578435,148.343848 L388.969087,139.62037 C388.820826,138.824065 389.071913,138.006239 389.645826,137.437109 L395.920609,131.159935 L387.120609,129.997761 C386.314739,129.890152 385.616478,129.395152 385.253,128.67537 L381.221261,120.772109 L377.399957,128.780587 C377.050826,129.509935 376.366913,130.021674 375.568217,130.148413 L366.801696,131.537761 Z M371.108435,153.124065 C370.613435,153.124065 370.118435,152.973413 369.692783,152.672109 C368.922783,152.126891 368.537783,151.213413 368.686043,150.280804 L370.338435,139.84037 L362.669522,132.561239 C361.988,131.915587 361.736913,130.954283 362.016696,130.055152 C362.294087,129.15363 363.047348,128.500804 363.975174,128.354935 L374.420391,126.700152 L378.973435,117.156457 C379.384739,116.305152 380.219304,115.771891 381.161478,115.759935 L381.192565,115.759935 C382.118,115.759935 382.954957,116.271674 383.378217,117.099065 L388.179957,126.518413 L398.661043,127.902978 C399.591261,128.024935 400.35887,128.656239 400.664957,129.545804 C400.968652,130.437761 400.74387,131.406239 400.079087,132.073413 L392.601478,139.551022 L394.524087,149.948413 C394.696261,150.873848 394.335174,151.799283 393.57713,152.36363 C392.82387,152.927978 391.831478,153.009283 390.994522,152.581239 L381.572783,147.784283 L372.280174,152.825152 C371.911913,153.026022 371.510174,153.124065 371.108435,153.124065 Z" id="Fill-109" fill="#8C99AA" mask="url(#mask-4)"></path>
                <polygon id="Fill-110" fill="#8C99AA" mask="url(#mask-4)" points="379.547826 84.346087 383.134783 84.346087 383.134783 76.6771739 379.547826 76.6771739"></polygon>
                <polygon id="Fill-111" fill="#8C99AA" mask="url(#mask-4)" points="379.547826 86.5078261 383.134783 86.5078261 383.134783 74.8454348 379.547826 74.8454348"></polygon>
                <polygon id="Fill-112" fill="#8C99AA" mask="url(#mask-4)" points="395.483239 88.6018913 392.018239 87.6740652 393.527152 82.0425435 396.992152 82.9703696"></polygon>
                <polygon id="Fill-113" fill="#8C99AA" mask="url(#mask-4)" points="406.86537 93.8211522 403.759065 92.0276739 409.591457 81.9291957 412.69537 83.7226739"></polygon>
                <polygon id="Fill-114" fill="#8C99AA" mask="url(#mask-4)" points="416.509978 101.810022 413.972804 99.2728478 418.097804 95.1526304 420.634978 97.687413"></polygon>
                <polygon id="Fill-115" fill="#8C99AA" mask="url(#mask-4)" points="423.7585 112.024478 421.965022 108.918174 432.065891 103.088174 433.85937 106.194478"></polygon>
                <polygon id="Fill-116" fill="#8C99AA" mask="url(#mask-4)" points="427.89187 123.8105 427.411217 120.257022 433.042739 119.494196 433.523391 123.050065"></polygon>
                <polygon id="Fill-117" fill="#8C99AA" mask="url(#mask-4)" points="440.948391 136.236435 429.286 136.234043 429.286 132.647087 440.948391 132.649478"></polygon>
                <polygon id="Fill-118" fill="#8C99AA" mask="url(#mask-4)" points="432.471457 150.082087 427.162761 148.573174 428.143196 145.124913 433.451891 146.633826"></polygon>
                <polygon id="Fill-119" fill="#8C99AA" mask="url(#mask-4)" points="432.064935 165.796065 421.966457 159.963674 423.759935 156.85737 433.858413 162.689761"></polygon>
                <polygon id="Fill-120" fill="#8C99AA" mask="url(#mask-4)" points="369.157848 186.839065 365.692848 185.906457 367.206543 180.277326 370.671543 181.209935"></polygon>
                <polygon id="Fill-121" fill="#8C99AA" mask="url(#mask-4)" points="353.093543 186.946435 349.987239 185.150565 355.824413 175.052087 358.928326 176.847957"></polygon>
                <polygon id="Fill-122" fill="#8C99AA" mask="url(#mask-4)" points="344.333957 173.97887 341.796783 171.439304 346.180043 167.060826 348.717217 169.600391"></polygon>
                <polygon id="Fill-123" fill="#8C99AA" mask="url(#mask-4)" points="330.626043 165.781957 328.832565 162.673261 338.935826 156.848043 340.729304 159.954348"></polygon>
                <polygon id="Fill-124" fill="#8C99AA" mask="url(#mask-4)" points="329.820413 150.091413 328.892587 146.626413 334.579109 145.103152 335.506935 148.568152"></polygon>
                <polygon id="Fill-125" fill="#8C99AA" mask="url(#mask-4)" points="333.414304 136.222326 321.751913 136.217543 321.751913 132.630587 333.414304 132.63537"></polygon>
                <polygon id="Fill-126" fill="#8C99AA" mask="url(#mask-4)" points="334.596087 123.756696 328.902391 122.259739 329.813478 118.789957 335.507174 120.286913"></polygon>
                <polygon id="Fill-127" fill="#8C99AA" mask="url(#mask-4)" points="338.948978 112.012761 328.8505 106.177978 330.643978 103.071674 340.742457 108.906457"></polygon>
                <polygon id="Fill-128" fill="#8C99AA" mask="url(#mask-4)" points="346.24437 101.844935 341.841978 97.7295 344.290674 95.1110217 348.690674 99.2240652"></polygon>
                <polygon id="Fill-129" fill="#8C99AA" mask="url(#mask-4)" points="355.8445 93.8163696 350.019283 83.7107174 353.125587 81.9196304 358.950804 92.0252826"></polygon>
                <polygon id="Fill-130" fill="#8C99AA" mask="url(#mask-4)" points="367.184543 88.3823696 366.404978 82.7532391 369.958457 82.2582391 370.738022 87.8897609"></polygon>
            </g>
        </g>
    </g>
</svg>